<svg width="1316" height="135" viewBox="0 0 1316 135" fill="none" xmlns="http://www.w3.org/2000/svg">
<path d="M0.351328 105H19.5313V72.8L48.0913 105H71.7513L37.5913 66.5L65.3113 35H42.2113L19.5313 60.76V-8.34465e-06H0.351328V105ZM76.1443 105H95.3243V70.84C95.3243 57.4 102.044 50.96 110.864 50.96C118.844 50.96 123.184 57.12 123.184 67.2V105H142.364V63.98C142.364 45.78 132.284 33.46 115.344 33.46C106.244 33.46 98.9643 37.38 95.3243 42.98V35H76.1443V105ZM226.973 70C226.973 49.56 210.453 33.46 190.153 33.46C169.853 33.46 153.333 49.56 153.333 70C153.333 90.44 169.853 106.54 190.153 106.54C210.453 106.54 226.973 90.44 226.973 70ZM172.653 70C172.653 59.22 180.073 51.38 190.153 51.38C200.233 51.38 207.513 59.22 207.513 70C207.513 80.78 200.233 88.62 190.153 88.62C180.073 88.62 172.653 80.78 172.653 70ZM283.361 104.3V87.36C281.121 88.2 278.601 88.62 275.521 88.62C267.261 88.62 263.621 85.26 263.621 76.72V51.8H283.361V35H263.621V15.54H244.441V35H230.301V51.8H244.441V80.5C244.441 97.58 256.341 105.84 271.181 105.84C276.501 105.84 280.281 105.28 283.361 104.3ZM341.107 104.3V87.36C338.867 88.2 336.347 88.62 333.267 88.62C325.007 88.62 321.367 85.26 321.367 76.72V51.8H341.107V35H321.367V15.54H302.187V35H288.047V51.8H302.187V80.5C302.187 97.58 314.087 105.84 328.927 105.84C334.247 105.84 338.027 105.28 341.107 104.3ZM419.876 82.18H399.856C397.616 86.94 391.736 89.88 385.016 89.88C373.116 89.88 366.956 82.74 366.116 74.48H420.716C421.696 48.16 404.756 33.46 384.176 33.46C362.896 33.46 347.356 49 347.356 69.86C347.356 91.14 362.616 106.54 384.036 106.54C401.816 106.54 415.676 96.32 419.876 82.18ZM383.616 49C390.196 49 397.336 52.5 399.716 61.88H366.816C368.636 54.18 374.796 49 383.616 49ZM432.687 105H451.867V71.54C451.867 60.06 457.887 52.92 466.987 52.92C470.067 52.92 472.727 53.48 475.667 54.46V35C473.287 34.3 471.187 34.16 469.227 34.16C461.387 34.16 454.247 39.34 451.867 46.2V35H432.687V105ZM540.971 85.26C540.971 74.34 535.231 67.06 521.511 63.56L509.191 60.2C504.991 59.22 501.211 57.68 501.211 53.76C501.211 50.4 504.571 48.44 509.471 48.44C513.671 48.44 517.731 50.26 518.711 55.58H538.031C536.911 41.58 525.151 33.46 509.751 33.46C492.251 33.46 481.611 42.14 481.611 54.18C481.611 64.4 487.211 72.8 499.391 75.88L512.551 79.24C518.711 80.78 521.371 82.6 521.371 86.24C521.371 89.6 518.291 91.84 512.271 91.84C506.111 91.84 500.791 88.9 500.091 82.74H480.071C480.771 96.46 493.651 106.54 511.711 106.54C528.651 106.54 540.971 98.42 540.971 85.26ZM578.203 70C578.203 89.88 592.483 106.54 611.103 106.54C620.763 106.54 628.183 101.64 631.263 97.16V105H650.443V35H631.263V42.84C628.183 38.36 620.763 33.46 611.103 33.46C592.483 33.46 578.203 50.12 578.203 70ZM632.803 70C632.803 80.92 625.663 89.04 615.163 89.04C604.663 89.04 597.523 80.92 597.523 70C597.523 59.08 604.663 50.96 615.163 50.96C625.663 50.96 632.803 59.08 632.803 70ZM667.09 105H686.27V71.54C686.27 60.06 692.29 52.92 701.39 52.92C704.47 52.92 707.13 53.48 710.07 54.46V35C707.69 34.3 705.59 34.16 703.63 34.16C695.79 34.16 688.65 39.34 686.27 46.2V35H667.09V105ZM785.903 82.18H765.883C763.643 86.94 757.763 89.88 751.043 89.88C739.143 89.88 732.983 82.74 732.143 74.48H786.743C787.723 48.16 770.783 33.46 750.203 33.46C728.923 33.46 713.383 49 713.383 69.86C713.383 91.14 728.643 106.54 750.063 106.54C767.843 106.54 781.703 96.32 785.903 82.18ZM749.643 49C756.223 49 763.363 52.5 765.743 61.88H732.843C734.663 54.18 740.823 49 749.643 49ZM896.61 82.18H876.59C874.35 86.94 868.47 89.88 861.75 89.88C849.85 89.88 843.69 82.74 842.85 74.48H897.45C898.43 48.16 881.49 33.46 860.91 33.46C839.63 33.46 824.09 49 824.09 69.86C824.09 91.14 839.35 106.54 860.77 106.54C878.55 106.54 892.41 96.32 896.61 82.18ZM860.35 49C866.93 49 874.07 52.5 876.45 61.88H843.55C845.37 54.18 851.53 49 860.35 49ZM896.5 105H919.6L935.84 84.28L952.08 105H975.04L947.88 70.7L974.34 35H951.52L935.7 56.42L919.88 35H897.2L923.66 70.7L896.5 105ZM982.754 134.26H1001.93V97.16C1005.15 101.64 1012.57 106.54 1022.23 106.54C1040.85 106.54 1055.13 89.88 1055.13 70C1055.13 50.12 1040.85 33.46 1022.23 33.46C1012.57 33.46 1005.15 38.36 1001.93 42.84V35H982.754V134.26ZM1035.67 70C1035.67 80.92 1028.53 89.04 1018.03 89.04C1007.53 89.04 1000.39 80.92 1000.39 70C1000.39 59.08 1007.53 50.96 1018.03 50.96C1028.53 50.96 1035.67 59.08 1035.67 70ZM1135.2 82.18H1115.18C1112.94 86.94 1107.06 89.88 1100.34 89.88C1088.44 89.88 1082.28 82.74 1081.44 74.48H1136.04C1137.02 48.16 1120.08 33.46 1099.5 33.46C1078.22 33.46 1062.68 49 1062.68 69.86C1062.68 91.14 1077.94 106.54 1099.36 106.54C1117.14 106.54 1131 96.32 1135.2 82.18ZM1098.94 49C1105.52 49 1112.66 52.5 1115.04 61.88H1082.14C1083.96 54.18 1090.12 49 1098.94 49ZM1148.01 105H1167.19V71.54C1167.19 60.06 1173.21 52.92 1182.31 52.92C1185.39 52.92 1188.05 53.48 1190.99 54.46V35C1188.61 34.3 1186.51 34.16 1184.55 34.16C1176.71 34.16 1169.57 39.34 1167.19 46.2V35H1148.01V105ZM1247.31 104.3V87.36C1245.07 88.2 1242.55 88.62 1239.47 88.62C1231.21 88.62 1227.57 85.26 1227.57 76.72V51.8H1247.31V35H1227.57V15.54H1208.39V35H1194.25V51.8H1208.39V80.5C1208.39 97.58 1220.29 105.84 1235.13 105.84C1240.45 105.84 1244.23 105.28 1247.31 104.3ZM1315.27 85.26C1315.27 74.34 1309.53 67.06 1295.81 63.56L1283.49 60.2C1279.29 59.22 1275.51 57.68 1275.51 53.76C1275.51 50.4 1278.87 48.44 1283.77 48.44C1287.97 48.44 1292.03 50.26 1293.01 55.58H1312.33C1311.21 41.58 1299.45 33.46 1284.05 33.46C1266.55 33.46 1255.91 42.14 1255.91 54.18C1255.91 64.4 1261.51 72.8 1273.69 75.88L1286.85 79.24C1293.01 80.78 1295.67 82.6 1295.67 86.24C1295.67 89.6 1292.59 91.84 1286.57 91.84C1280.41 91.84 1275.09 88.9 1274.39 82.74H1254.37C1255.07 96.46 1267.95 106.54 1286.01 106.54C1302.95 106.54 1315.27 98.42 1315.27 85.26Z" fill="white"/>
</svg>
