<svg width="176" height="392" viewBox="0 0 176 392" fill="none" xmlns="http://www.w3.org/2000/svg">
<path d="M9.60133 4.82435C7.99527 4.78251 5.66371 6.88613 5.15153 9.34013C4.60125 12.0029 6.12355 15.7618 9.41005 19.8203C11.9297 22.9209 14.2846 24.6828 17.9696 26.2323C21.4376 27.6963 24.3035 27.3564 25.8672 25.3165C26.7844 24.124 27.1973 22.2503 26.6582 21.7311C26.4484 21.5403 25.2344 20.7625 23.947 20.0265C21.2828 18.4896 21.2001 18.4956 19.6919 20.2457C18.9636 21.0874 18.52 21.3852 18.0174 21.35C16.3704 21.2231 12.2738 17.4955 11.2487 15.1924L10.7009 13.9562L11.5795 13.1485C12.8849 11.9479 13.1579 11.4033 12.8253 10.6166C12.6745 10.2538 12.2195 9.03577 11.8046 7.91453C11.4014 6.7941 10.8939 5.65464 10.6898 5.38199C10.4422 5.05933 10.1131 4.89535 9.74076 4.84582C9.70652 4.83169 9.64808 4.82762 9.60133 4.82435Z" fill="black"/>
<path fill-rule="evenodd" clip-rule="evenodd" d="M92.1867 5.73322C92.3201 5.59989 92.5867 5.46655 92.7201 5.46655C92.8534 5.46655 93.1201 5.59989 93.2534 5.73322L97.9201 10.3999C98.1867 10.6666 98.1867 11.0666 97.9201 11.3332L95.7867 13.5999L90.0534 7.86655L92.1867 5.73322ZM78.1866 19.7334L88.9866 8.93335L94.5866 14.5334L83.7866 25.3334C83.6533 25.4667 83.3866 25.6 83.2533 25.6H78.5866C78.1866 25.6 77.9199 25.3334 77.9199 24.9334V20.2667C77.9199 20 78.0533 19.8667 78.1866 19.7334Z" fill="black"/>
<path fill-rule="evenodd" clip-rule="evenodd" d="M166.837 6.2666L169.752 9.36922L172.667 12.5188H169.705V22.9549C169.705 24.5062 168.436 25.7755 166.837 25.7755H165.521H164.017H161.478C160.914 25.7755 160.778 25.3524 160.778 24.7883C160.778 24.2242 160.914 23.8011 161.478 23.8011H162.701C163.312 23.8011 164.017 23.143 164.017 22.5318V12.5188H161.055L163.97 9.36922L166.837 6.2666ZM153.162 25.7755L150.248 22.6729L147.333 19.5702H150.295V9.13417C150.295 7.53585 151.564 6.2666 153.162 6.2666H154.479H155.983H158.521C159.086 6.2666 159.556 6.73669 159.556 7.2538C159.556 7.81791 159.086 8.288 158.521 8.288H157.299C156.688 8.288 155.983 8.89912 155.983 9.51025V19.5702H158.945L156.03 22.6729L153.162 25.7755Z" fill="black"/>
<path d="M27.972 78.3999H4.02815C3.27026 78.3999 2.66675 79.0034 2.66675 79.7613V96.6876C2.66675 97.4455 3.27026 98.049 4.02815 98.049H27.972C28.7299 98.049 29.3334 97.4455 29.3334 96.6876V79.7613C29.3334 79.0034 28.7299 78.3999 27.972 78.3999ZM25.979 95.6911L19.4668 87.8596L16.0001 90.2034V90.1894V90.2034L12.5334 87.8596L6.02114 95.6911L4.94043 94.7929L11.3685 87.0596L5.68429 83.1859L6.47026 82.021L16.0001 88.5192L25.5299 82.035L26.3159 83.1999L20.6317 87.0596L27.0597 94.7929L25.979 95.6911Z" fill="black"/>
<path d="M76.1418 92.2288L78.4589 96.0452C78.7315 96.4541 79.2767 96.7267 79.8219 96.5904L83.0932 95.5C83.3658 95.6363 83.6384 95.9089 84.0473 96.0452L84.7288 99.4528C84.8651 99.998 85.274 100.407 85.8192 100.407H90.3171C90.8623 100.407 91.2712 99.998 91.4075 99.4528L92.089 96.0452C92.3616 95.9089 92.7705 95.7726 93.0431 95.5L96.3144 96.5904C96.8596 96.7267 97.4048 96.5904 97.6774 96.0452L99.8582 92.0925C100.131 91.6836 99.9945 91.0021 99.5856 90.7295L96.9959 88.4124C96.9959 88.2761 96.9959 88.0035 96.9959 87.8672C96.9959 87.7309 96.9959 87.4583 96.9959 87.322L99.5856 85.1412C99.9945 84.7323 100.131 84.1871 99.8582 83.7782L97.6774 79.8254C97.4048 79.4165 96.8596 79.1439 96.3144 79.2802L93.0431 80.3706C92.7705 80.2343 92.4979 79.9617 92.089 79.8254L91.4075 76.4179C91.2712 76.009 90.726 75.6001 90.1808 75.6001H85.6829C85.274 75.6001 84.7288 76.009 84.5925 76.5542L83.911 79.9617C83.6384 80.098 83.3658 80.2343 83.0932 80.5069L79.6856 79.2802C79.1404 79.1439 78.5952 79.2802 78.3226 79.8254L76.1418 83.7782C75.8692 84.1871 76.0055 84.7323 76.4144 85.1412L79.0041 87.4583C79.0041 87.5946 79.0041 87.8672 79.0041 88.0035C79.0041 88.1398 79.0041 88.4124 79.0041 88.5487L76.4144 90.8658C76.0055 91.1384 75.8692 91.6836 76.1418 92.2288ZM88 83.5055C90.4534 83.5055 92.4979 85.5501 92.4979 88.0035C92.4979 90.4569 90.4534 92.5014 88 92.5014C85.5466 92.5014 83.5021 90.4569 83.5021 88.0035C83.5021 85.5501 85.5466 83.5055 88 83.5055Z" fill="black"/>
<path d="M167.356 77.8789C165.315 75.8646 162.728 74.6627 160 74.6668H159.926C154.391 74.7538 149.473 79.7763 149.335 85.1344C149.313 86.3158 149.526 87.4904 149.961 88.5939L149.967 88.6116C149.994 88.7845 152.237 93.6687 159.214 100.933V100.933C159.238 100.966 159.264 100.997 159.292 101.027C159.468 101.217 159.716 101.328 159.979 101.333C160.242 101.339 160.495 101.238 160.679 101.056C164.05 97.7749 166.472 94.5122 167.841 92.4362C169.348 90.1551 169.999 88.6917 170.026 88.6278C170.031 88.6162 170.035 88.6054 170.04 88.5939V88.5937C170.471 87.4993 170.683 86.3352 170.666 85.1634C170.63 82.4906 169.411 79.9201 167.356 77.8783L167.356 77.8789ZM160.03 89.2793C157.7 89.2761 155.802 87.4398 155.814 85.1917C155.825 82.9433 157.727 81.0722 160.03 81.0722C162.332 81.0722 164.231 82.9471 164.247 85.1937C164.262 87.4404 162.359 89.2761 160.03 89.2793Z" fill="black"/>
<path d="M28.5529 157.593C28.9432 157.593 29.3334 157.203 29.3334 156.813V152.78C29.3334 152.39 28.9432 152 28.5529 152H11.6424V155.902C11.6424 156.293 11.2521 156.683 10.8619 156.683C10.4716 156.683 10.0814 156.293 10.0814 155.902V152H3.44724C3.05699 152 2.66675 152.39 2.66675 152.78V156.943C2.66675 157.333 3.05699 157.724 3.44724 157.724C4.74805 157.724 5.7887 158.764 5.7887 160.065C5.7887 161.366 4.74805 162.276 3.44724 162.276C3.05699 162.276 2.66675 162.537 2.66675 163.057V167.22C2.66675 167.61 3.05699 168 3.44724 168H10.0814V164.098C10.0814 163.707 10.4716 163.317 10.8619 163.317C11.2521 163.317 11.6424 163.707 11.6424 164.098V168H28.5529C28.9432 168 29.3334 167.61 29.3334 167.22V163.057C29.3334 162.667 28.9432 162.276 28.5529 162.276C27.2521 162.276 26.2115 161.236 26.2115 159.935C26.2115 158.634 27.2521 157.593 28.5529 157.593ZM11.6424 160.976C11.6424 161.366 11.2521 161.756 10.8619 161.756C10.4716 161.756 10.0814 161.366 10.0814 160.976V158.894C10.0814 158.504 10.4716 158.114 10.8619 158.114C11.2521 158.114 11.6424 158.504 11.6424 158.894V160.976Z" fill="black"/>
<path d="M97.6951 153.541H93.5161C94.0925 152.82 94.6689 151.955 94.6689 150.947C94.6689 148.785 92.9396 147.2 90.9222 147.2C89.4812 147.2 88.3283 147.92 87.7519 148.929C87.0314 147.92 85.8786 147.2 84.5816 147.2C82.4201 147.2 80.8349 148.929 80.8349 150.947C80.8349 151.955 81.1232 152.964 81.8437 153.541H77.8088C77.2324 153.541 76.8 153.973 76.8 154.549V164.204V164.925V171.791C76.8 172.368 77.2324 172.8 77.8088 172.8H87.3196H88.0401H97.6951C98.2715 172.8 98.7038 172.368 98.7038 171.791V164.925V164.204V154.549C98.5597 153.973 98.1274 153.541 97.6951 153.541ZM78.5293 159.593H86.3109V163.34H78.5293V159.593ZM88.9047 159.593H96.6863V163.34H88.9047V159.593ZM88.9047 150.947C88.9047 149.938 89.7694 149.073 90.7781 149.073C91.7868 149.073 92.6514 149.938 92.6514 150.947C92.6514 151.955 91.7868 152.82 90.7781 152.82H88.9047V152.676V150.947ZM84.4375 149.217C85.4463 149.217 86.1668 150.082 86.1668 150.947V152.676V152.82H84.4375C83.4288 152.82 82.5642 151.955 82.5642 150.947C82.5642 149.938 83.4288 149.217 84.4375 149.217ZM78.5293 165.933H86.3109V170.927H78.5293V165.933ZM88.9047 170.927V165.933H96.6863V170.927H88.9047Z" fill="black"/>
<path fill-rule="evenodd" clip-rule="evenodd" d="M172.139 153.508H172.676C173.884 153.508 174.019 154.716 173.75 155.791C173.75 156.462 173.213 157.134 172.407 157.134H171.736C172.541 158.208 172.944 159.417 172.944 160.759V167.34C172.944 168.011 172.407 168.683 171.601 168.683H169.856C168.513 168.683 168.378 167.34 168.513 166.265H162.738C162.604 165.863 162.47 165.46 162.201 165.191C163.007 164.251 163.141 162.64 162.47 161.431L161.127 159.148C160.455 158.208 159.381 157.537 158.172 157.537H157.635C157.232 156.328 156.024 155.388 154.547 155.388H151.861C150.652 155.388 149.443 156.059 148.906 157.134C148.235 157.134 147.563 156.596 147.563 155.791C147.563 154.716 147.698 153.508 148.906 153.373H149.443C149.981 153.508 150.518 153.642 150.921 154.045C151.458 152.702 152.129 151.225 152.935 149.882C153.741 148.808 154.949 148.136 156.158 148.002C157.635 147.733 159.112 147.733 160.724 147.733C162.335 147.733 163.813 147.868 165.424 148.136C166.767 148.27 167.841 148.942 168.647 150.016C169.453 151.359 170.124 152.702 170.661 154.179C171.064 153.776 171.601 153.508 172.139 153.508ZM167.069 161.435C168.251 161.491 169.587 161.555 169.587 160.357V159.685C169.387 158.184 167.994 158.622 166.797 158.998C166.387 159.127 166.001 159.248 165.693 159.282C164.484 159.551 164.753 161.431 165.961 161.431C166.271 161.396 166.661 161.415 167.069 161.435ZM158.442 165.326V165.594L160.053 166.937C160.322 167.072 160.322 167.475 160.188 167.743L158.845 170.026C158.711 170.295 158.308 170.429 158.039 170.295L156.159 169.623C156.092 169.69 155.991 169.724 155.89 169.757C155.79 169.791 155.689 169.825 155.622 169.892L155.353 171.906C155.219 172.175 154.95 172.443 154.682 172.443H151.996C151.593 172.443 151.325 172.175 151.325 171.906L150.787 169.757C150.653 169.757 150.385 169.623 150.25 169.489L148.37 170.16C148.102 170.295 147.699 170.16 147.564 169.892L146.222 167.609C146.087 167.34 146.087 167.072 146.356 166.803L147.833 165.46V165.192V164.923L146.356 163.58C146.087 163.446 146.087 163.043 146.222 162.774L147.564 160.491C147.833 160.223 148.102 160.089 148.37 160.223L150.385 160.894C150.519 160.76 150.653 160.626 150.922 160.491L151.325 158.477C151.325 158.208 151.593 158.074 151.862 157.94H154.548C154.95 157.94 155.219 158.208 155.219 158.477L155.622 160.491C155.689 160.559 155.79 160.626 155.89 160.693C155.991 160.76 156.092 160.827 156.159 160.894L158.039 160.223C158.308 160.089 158.711 160.223 158.711 160.626L160.053 162.909C160.188 163.177 160.188 163.446 159.919 163.714L158.442 165.057V165.326ZM150.519 165.192C150.519 166.669 151.727 167.877 153.205 167.877C154.682 167.877 155.89 166.669 155.89 165.192C155.89 163.714 154.682 162.506 153.205 162.506C151.727 162.506 150.519 163.714 150.519 165.192Z" fill="black"/>
<path d="M14.6124 226.911H16.7366C17.5438 226.89 18.2377 227.364 18.135 228.164L17.427 233.436C17.3066 234.349 18.6802 234.586 19.1369 233.436C19.4131 232.727 20.769 233.032 20.4752 234.144C20.2274 235.064 18.8431 236.055 17.997 236.055H17.1473C16.8284 236.041 16.5161 235.961 16.2304 235.819C15.9446 235.676 15.6919 235.476 15.4884 235.23C15.2849 234.984 15.1352 234.698 15.049 234.391C14.9627 234.084 14.9419 233.762 14.9877 233.446L15.5825 229.198L14.2973 228.815C14.0649 228.753 13.8641 228.606 13.7339 228.404C13.6036 228.201 13.5532 227.958 13.5925 227.72C13.6318 227.483 13.7579 227.269 13.9464 227.119C14.1349 226.969 14.3723 226.895 14.6124 226.911ZM16.9809 222.287C17.3068 222.292 17.624 222.393 17.8926 222.578C18.1612 222.762 18.3692 223.022 18.4906 223.325C18.6119 223.627 18.6411 223.959 18.5746 224.278C18.508 224.597 18.3486 224.889 18.1164 225.118C17.8843 225.347 17.5897 225.502 17.2696 225.564C16.9496 225.625 16.6185 225.591 16.3178 225.465C16.0171 225.34 15.7604 225.128 15.5798 224.856C15.3992 224.585 15.3028 224.266 15.3028 223.94C15.3037 223.721 15.3479 223.505 15.4329 223.303C15.5178 223.101 15.6419 222.918 15.7978 222.765C15.9538 222.611 16.1386 222.49 16.3417 222.408C16.5447 222.326 16.7619 222.285 16.9809 222.287ZM8.87356 219.2C6.53696 219.2 5.33325 224.91 5.33325 232.002C5.33325 239.093 6.55112 244.8 8.87356 244.8H25.4316C26.7238 244.8 26.8477 242.488 25.4564 242.488H12.4599C10.049 242.488 10.049 239.213 12.4599 239.213H24.497C25.7396 239.213 26.4264 237.649 26.4264 236.201V222.33C26.4264 220.595 25.2121 219.2 23.7004 219.2H8.87356Z" fill="black"/>
<path fill-rule="evenodd" clip-rule="evenodd" d="M84.9015 226.297L93.722 235.146C95.2785 234.551 97.1316 234.922 98.4658 236.187C99.8 237.525 100.096 239.533 99.2811 241.168L96.4645 238.268C95.0562 236.856 92.9066 239.012 94.3149 240.425L97.2057 243.325C95.575 244.068 93.5737 243.771 92.2395 242.432C90.9053 241.168 90.6089 239.235 91.2018 237.674L82.3813 228.825C80.8248 229.42 78.8976 229.123 77.6375 227.784C76.3033 226.446 76.0069 224.438 76.7481 222.802L79.6388 225.702C81.0471 227.115 83.1967 224.959 81.7884 223.546L78.8976 220.72C80.5283 219.902 82.5296 220.2 83.8638 221.538C85.1238 222.877 85.4944 224.736 84.9015 226.297ZM76.9704 239.756L84.1603 232.543L87.4216 235.815L80.2318 243.027C78.0823 245.184 74.8209 241.912 76.9704 239.756ZM89.497 228.974L93.3514 225.107L95.2785 222.059L98.0952 220.349L99.5776 221.761L97.7987 224.661L94.8338 226.52L90.9053 230.461L89.497 228.974Z" fill="black"/>
<path fill-rule="evenodd" clip-rule="evenodd" d="M150.77 219.733H169.344C169.834 219.733 170.247 220.146 170.298 220.636V242.874C170.298 243.312 170.066 243.725 169.679 243.931C169.292 244.138 168.828 244.112 168.467 243.88L166.841 242.796C166.506 242.59 166.093 242.59 165.758 242.796L163.849 244.06C163.668 244.189 163.436 244.267 163.204 244.267C162.972 244.267 162.74 244.189 162.533 244.06L160.624 242.796C160.289 242.59 159.876 242.59 159.541 242.796L157.632 244.06C157.245 244.318 156.729 244.318 156.316 244.06L154.407 242.796C154.072 242.59 153.659 242.59 153.324 242.796L151.698 243.88C151.337 244.112 150.873 244.138 150.486 243.931C150.099 243.725 149.867 243.312 149.867 242.874V220.636C149.867 220.146 150.279 219.733 150.77 219.733ZM165.758 225.409H154.407V227.111H165.758V225.409ZM165.758 229.949H154.407V231.651H165.758V229.949ZM154.407 234.49H165.758V236.192H154.407V234.49Z" fill="black"/>
<path fill-rule="evenodd" clip-rule="evenodd" d="M24.1897 301.035H17.6813L20.8632 292.502C20.8632 292.502 20.8632 292.357 20.8632 292.212C20.7185 291.634 20.2846 291.2 19.8507 291.2C19.4168 291.2 19.1276 291.345 18.9829 291.634L6.54454 305.374C6.3999 305.519 6.3999 305.663 6.3999 305.952C6.3999 306.531 6.8338 306.965 7.41233 306.965H13.9208L10.7389 315.498C10.7389 315.498 10.7389 315.643 10.7389 315.788C10.7389 316.366 11.1728 316.8 11.7513 316.8C12.0406 316.8 12.3298 316.655 12.4745 316.511L24.9129 302.771C25.2022 302.481 25.2022 302.337 25.2022 302.047C25.2022 301.469 24.7683 301.035 24.1897 301.035Z" fill="black"/>
<path d="M73.8797 305.004L75.461 303.82L76.0602 300.887C76.2282 300.472 76.5174 300.117 76.8901 299.868C77.2628 299.62 77.702 299.489 78.15 299.494H80.3374V296.45C80.3355 296.149 80.4535 295.861 80.6653 295.647C80.8771 295.434 81.1653 295.314 81.4657 295.314H101.347C101.687 295.314 102.013 295.449 102.253 295.69C102.494 295.93 102.629 296.256 102.629 296.596V308.94C102.629 309.206 102.523 309.461 102.335 309.649C102.147 309.837 101.892 309.943 101.625 309.943H99.1457C99.1588 310.695 98.8724 311.421 98.3499 311.962C97.8272 312.503 97.1112 312.814 96.3592 312.827C95.6073 312.814 94.8912 312.503 94.3685 311.962C93.8461 311.421 93.5597 310.695 93.5727 309.943H82.4275C82.4275 310.938 81.8964 311.858 81.0341 312.356C80.172 312.854 79.1099 312.854 78.2479 312.356C77.3856 311.858 76.8545 310.938 76.8545 309.943H74.5627C74.2488 309.945 73.9467 309.822 73.7232 309.601C73.4998 309.38 73.3734 309.08 73.3715 308.766V306.014C73.3732 305.616 73.5614 305.242 73.88 305.004L73.8797 305.004Z" fill="black"/>
<path d="M170.427 294.859C169.2 293.486 167.565 292.8 165.929 292.8C164.293 292.8 162.658 293.486 161.431 294.859L160.068 296.39L158.705 294.859C156.252 292.251 152.163 292.251 149.573 294.859C147.12 297.466 147.12 301.858 149.573 304.466C152.845 308.034 156.252 311.465 159.523 315.033C159.796 315.308 160.205 315.308 160.477 315.033L170.427 304.466C172.88 301.721 172.88 297.466 170.427 294.859Z" fill="black"/>
<path fill-rule="evenodd" clip-rule="evenodd" d="M24.0655 377.873L25.8783 379.686C26.12 380.048 26.2408 380.411 26.2408 380.894V382.586H5.33325V380.894C5.33325 380.411 5.45411 380.048 5.69581 379.807L7.50861 377.994C8.11287 377.39 8.47543 376.544 8.47543 375.698V372.676C8.47543 369.172 10.8925 366.271 14.1555 365.546V365.304C14.1555 364.458 15.0015 363.733 15.8475 363.733C16.6934 363.733 17.4186 364.458 17.4186 365.184V365.425C20.6816 366.271 23.0987 369.293 23.0987 372.797V375.577C23.0987 376.423 23.4612 377.269 24.0655 377.873ZM15.8478 388.266C14.035 388.266 12.5848 386.816 12.5848 385.003V384.278H19.1109V385.003C19.1109 386.816 17.6606 388.266 15.8478 388.266Z" fill="black"/>
<path d="M98.2283 387.855C98.0679 388.112 97.7863 388.267 97.4835 388.267H78.2073C77.9036 388.266 77.6221 388.108 77.4631 387.849C77.3043 387.59 77.2908 387.267 77.4275 386.996L78.6892 384.464C78.9077 384.026 79.2443 383.658 79.6606 383.401C80.077 383.144 80.5567 383.009 81.0461 383.009H85.6549V376.876H78.2073C77.9206 376.876 77.6522 376.735 77.4887 376.499C77.3236 376.26 77.2875 375.955 77.3925 375.685L81.7735 364.294C81.8368 364.129 81.9487 363.988 82.0942 363.888C82.2395 363.788 82.4118 363.734 82.5882 363.733H93.1025C93.279 363.734 93.4513 363.788 93.5966 363.888C93.7421 363.988 93.854 364.129 93.9173 364.294L98.2983 375.685C98.4033 375.955 98.3671 376.26 98.2021 376.499C98.0386 376.735 97.7702 376.876 97.4835 376.876H90.0358V383.009H94.6447C95.134 383.009 95.6137 383.144 96.0302 383.401C96.4465 383.658 96.7831 384.026 97.0016 384.464L98.2632 386.996C98.4025 387.269 98.3892 387.594 98.2282 387.855L98.2283 387.855Z" fill="black"/>
<path fill-rule="evenodd" clip-rule="evenodd" d="M167.161 376.178V373.9H167.161C169.42 373.346 171.123 370.949 171.123 368.076C171.123 364.798 168.905 362.133 166.171 362.133C163.437 362.133 161.218 364.798 161.218 368.076C161.218 370.929 162.922 373.346 165.18 373.9V376.178C164.602 376.383 164.102 376.761 163.747 377.261C163.392 377.761 163.201 378.359 163.199 378.972V379.962H169.142V378.972C169.141 378.359 168.949 377.761 168.595 377.261C168.24 376.761 167.739 376.383 167.161 376.178ZM169.143 381.943H163.2V386.895C163.2 387.957 163.766 388.938 164.686 389.468C165.605 389.999 166.738 389.999 167.657 389.468C168.576 388.938 169.143 387.957 169.143 386.895V381.943ZM151.315 381.943H157.258V386.895C157.258 387.957 156.691 388.938 155.772 389.468C154.853 389.999 153.72 389.999 152.8 389.468C151.881 388.938 151.315 387.957 151.315 386.895V381.943ZM159.238 371.048V363.124H159.238C159.238 362.77 159.049 362.443 158.743 362.266C158.436 362.089 158.059 362.089 157.752 362.266C157.446 362.443 157.257 362.77 157.257 363.124V368.076H155.276V363.124C155.276 362.77 155.087 362.443 154.781 362.266C154.474 362.089 154.097 362.089 153.79 362.266C153.484 362.443 153.295 362.77 153.295 363.124V368.076H151.314V363.124C151.314 362.77 151.125 362.443 150.819 362.266C150.513 362.089 150.135 362.089 149.828 362.266C149.522 362.443 149.333 362.77 149.333 363.124V371.048C149.333 371.836 149.646 372.592 150.203 373.149C150.761 373.706 151.517 374.019 152.305 374.019H153.295V376.178C152.717 376.383 152.216 376.761 151.862 377.261C151.507 377.761 151.316 378.358 151.314 378.971V379.962H157.257V378.971C157.255 378.358 157.064 377.761 156.709 377.261C156.355 376.761 155.854 376.383 155.276 376.178V374.019H156.267C157.055 374.019 157.811 373.706 158.368 373.149C158.925 372.591 159.238 371.836 159.238 371.048Z" fill="black"/>
</svg>
