<svg width="1123" height="289" viewBox="0 0 1123 289" fill="none" xmlns="http://www.w3.org/2000/svg">
<path d="M172.464 108H228.074C249.156 108 264.594 96.38 264.594 76.626C264.594 63.346 257.622 54.382 245.836 50.398C252.808 46.248 257.456 39.442 257.456 29.316C257.456 11.222 241.852 0.432 221.766 0.432H172.464V108ZM226.082 61.188C239.03 61.188 244.508 67.164 244.508 75.464C244.508 83.93 238.698 90.404 226.082 90.404H191.886V61.188H226.082ZM220.604 18.028C232.39 18.028 238.034 23.008 238.034 31.308C238.034 39.442 232.556 44.588 220.604 44.588H191.886V18.028H220.604ZM378.302 108V90.404H313.23V61.354H356.39V44.422H313.23V18.028H377.14V0.432H293.974V108H378.302ZM425.456 108V32.802L483.722 108H500.156V0.432H481.896V75.796L423.63 0.432H407.03V108H425.456ZM579.334 108V18.028H616.186V0.432H522.894V18.028H559.912V108H579.334ZM720.01 108V90.404H658.424V0.432H639.002V108H720.01ZM830.898 108V90.404H765.826V61.354H808.986V44.422H765.826V18.028H829.736V0.432H746.57V108H830.898ZM911.086 108V62.184L956.238 0.432H933.828L901.126 45.418L868.756 0.432H845.848L891 62.184V108H911.086ZM19.424 287V216.284L53.288 264.424H56.774L90.306 216.782V287H108.566V179.432H93.792L55.446 236.536L16.104 179.432H0.997967V287H19.424ZM228.234 287V269.404H163.162V240.354H206.322V223.422H163.162V197.028H227.072V179.432H143.906V287H228.234ZM275.388 287V216.284L309.252 264.424H312.738L346.27 216.782V287H364.53V179.432H349.756L311.41 236.536L272.068 179.432H256.962V287H275.388ZM399.372 287H454.982C476.064 287 491.502 275.38 491.502 255.626C491.502 242.346 484.53 233.382 472.744 229.398C479.716 225.248 484.364 218.442 484.364 208.316C484.364 190.222 468.76 179.432 448.674 179.432H399.372V287ZM452.99 240.188C465.938 240.188 471.416 246.164 471.416 254.464C471.416 262.93 465.606 269.404 452.99 269.404H418.794V240.188H452.99ZM447.512 197.028C459.298 197.028 464.942 202.008 464.942 210.308C464.942 218.442 459.464 223.588 447.512 223.588H418.794V197.028H447.512ZM605.209 287V269.404H540.137V240.354H583.297V223.422H540.137V197.028H604.047V179.432H520.881V287H605.209ZM653.36 287V248.322H669.794L702.164 287H725.072L690.876 245.832C706.646 241.516 716.108 229.564 716.108 213.794C716.108 193.21 700.836 179.432 676.102 179.432H633.938V287H653.36ZM675.438 197.028C687.058 197.028 696.188 202.34 696.188 214.292C696.188 226.078 688.22 231.556 676.434 231.556H653.36V197.028H675.438ZM744.979 277.372C755.935 285.672 770.875 288.328 783.823 288.328C810.881 288.328 826.485 277.538 826.485 257.618C826.485 237.532 810.549 229.73 790.961 224.916C774.195 220.932 764.899 218.94 764.899 208.648C764.899 199.684 772.037 195.202 786.479 195.202C800.755 195.202 812.707 199.684 821.671 206.49V187.068C811.711 180.76 799.925 178.104 785.981 178.104C758.093 178.104 744.315 191.218 744.315 209.644C744.315 230.228 760.749 237.034 779.839 241.516C800.423 246.164 805.403 249.982 805.403 257.784C805.403 266.582 799.261 271.23 783.657 271.23C771.373 271.23 756.433 267.246 744.979 257.95V277.372ZM875.767 287V241.35H931.211V287H950.633V179.432H931.211V223.422H875.767V179.432H856.345V287H875.767ZM1004.39 287V179.432H984.964V287H1004.39ZM1057.65 287V250.646H1081.05C1109.61 250.646 1122.89 235.706 1122.89 215.454C1122.89 194.372 1107.61 179.432 1081.05 179.432H1038.23V287H1057.65ZM1080.56 197.028C1095.83 197.028 1102.97 204.498 1102.97 215.288C1102.97 226.078 1095.83 233.714 1080.56 233.714H1057.65V197.028H1080.56Z" fill="white"/>
</svg>
