<svg width="168" height="24" viewBox="0 0 168 24" fill="none" xmlns="http://www.w3.org/2000/svg">
<g clip-path="url(#clip0_849_157)">
<path d="M43.8533 23.7454H49.8042L42.1202 13.8165L49.1746 6.52638H43.3185L36.1422 13.4174V0H31.2305V23.7454H36.1422V19.383L38.5252 17.0195L43.8533 23.7454Z" fill="#111111"/>
<path d="M68.2868 9.58505C67.6775 8.46349 66.8447 7.63436 65.7852 7.08734C64.7257 6.54376 63.524 6.27197 62.1801 6.27197C60.7313 6.27197 59.4416 6.58161 58.3076 7.20087C57.6374 7.56555 57.0619 8.02656 56.5745 8.58046V6.53H51.8828V23.7456H56.7945V15.2341C56.7945 14.147 56.9672 13.2731 57.3158 12.6091C57.6611 11.9486 58.1452 11.4463 58.7646 11.1057C59.3841 10.7651 60.0814 10.5931 60.86 10.5931C61.9499 10.5931 62.7962 10.9233 63.3954 11.5839C63.9945 12.2444 64.2924 13.2697 64.2924 14.6561V23.7456H69.2041V13.8889C69.2041 12.1412 68.8995 10.7066 68.2901 9.58505H68.2868Z" fill="#111111"/>
<path d="M81.7928 24.0002C80.0089 24.0002 78.4179 23.6149 77.0233 22.8477C75.6286 22.0805 74.5319 21.0277 73.733 19.6963C72.9341 18.3614 72.5381 16.8442 72.5381 15.1378C72.5381 13.4314 72.9375 11.8798 73.733 10.5449C74.5319 9.21349 75.6286 8.16762 77.0233 7.40729C78.4179 6.65041 80.0089 6.27197 81.7928 6.27197C83.5767 6.27197 85.2049 6.65041 86.6097 7.40729C88.0145 8.16418 89.1181 9.21005 89.9169 10.5449C90.7158 11.8798 91.1119 13.4073 91.1119 15.1378C91.1119 16.8683 90.7124 18.3924 89.9169 19.7135C89.1181 21.038 88.0179 22.0805 86.6097 22.8511C85.2049 23.6183 83.597 24.0036 81.7928 24.0036V24.0002ZM81.7928 19.9027C82.6323 19.9027 83.3736 19.7169 84.0134 19.3419C84.6532 18.9704 85.1677 18.4199 85.557 17.694C85.9463 16.9681 86.1392 16.1149 86.1392 15.1344C86.1392 14.1539 85.9463 13.28 85.557 12.5747C85.1677 11.8695 84.6532 11.3328 84.0134 10.9578C83.3736 10.5862 82.6425 10.397 81.8267 10.397C81.0109 10.397 80.2729 10.5828 79.623 10.9578C78.9731 11.3328 78.4518 11.8695 78.0659 12.5747C77.6766 13.28 77.4836 14.1332 77.4836 15.1344C77.4836 16.1355 77.6766 16.9681 78.0659 17.694C78.4552 18.4199 78.9731 18.9704 79.623 19.3419C80.2729 19.7169 80.9973 19.9027 81.7962 19.9027H81.7928Z" fill="#111111"/>
<path d="M103.992 19.3932C103.447 19.8198 102.773 20.0331 101.978 20.0331C101.348 20.0331 100.851 19.8301 100.482 19.4242C100.113 19.0182 99.9299 18.454 99.9299 17.7281V10.751H104.117V6.91156H99.9299V2.72119H94.9878V6.91156H92.3745V10.751H94.9878V17.8244C94.9878 19.8714 95.5429 21.4127 96.6566 22.4483C97.7703 23.4838 99.3206 23.9999 101.318 23.9999C102.073 23.9999 102.804 23.9104 103.505 23.7281C104.209 23.5457 104.801 23.2739 105.285 22.9127L103.995 19.3932H103.992Z" fill="#111111"/>
<path d="M117.309 19.3932C116.764 19.8198 116.09 20.0331 115.295 20.0331C114.665 20.0331 114.168 19.8301 113.799 19.4242C113.43 19.0182 113.247 18.454 113.247 17.7281V10.751H117.434V6.91156H113.247V2.72119H108.305V6.91156H105.691V10.751H108.305V17.8244C108.305 19.8714 108.86 21.4127 109.973 22.4483C111.087 23.4838 112.638 23.9999 114.635 23.9999C115.39 23.9999 116.121 23.9104 116.821 23.7281C117.526 23.5457 118.118 23.2739 118.602 22.9127L117.312 19.3932H117.309Z" fill="#111111"/>
<path d="M136.296 10.4314C135.52 9.11028 134.464 8.08505 133.131 7.35913C131.797 6.63321 130.301 6.27197 128.645 6.27197C126.99 6.27197 125.375 6.65041 124.001 7.40729C122.627 8.16417 121.557 9.21693 120.789 10.5587C120.024 11.9039 119.641 13.4279 119.641 15.1344C119.641 16.8408 120.041 18.3614 120.836 19.6928C121.635 21.0277 122.755 22.077 124.204 22.8442C125.653 23.6114 127.342 23.9967 129.275 23.9967C130.808 23.9967 132.162 23.7559 133.337 23.2777C134.512 22.7961 135.49 22.108 136.265 21.2135L133.652 18.3339C133.087 18.8878 132.46 19.3041 131.78 19.5828C131.096 19.8614 130.314 19.999 129.434 19.999C128.405 19.999 127.525 19.8133 126.79 19.4383C126.056 19.0667 125.477 18.5266 125.057 17.8213C124.827 17.436 124.665 17.0059 124.563 16.5415H137.369C137.389 16.3282 137.409 16.0977 137.433 15.8534C137.453 15.6091 137.463 15.3889 137.463 15.1963C137.463 13.3419 137.074 11.7525 136.299 10.4279L136.296 10.4314ZM126.455 10.6068C127.095 10.2353 127.836 10.0461 128.676 10.0461C129.515 10.0461 130.25 10.2318 130.879 10.6068C131.509 10.9818 132.003 11.4979 132.359 12.1584C132.596 12.5954 132.741 13.0908 132.809 13.6309H124.499C124.58 13.0977 124.729 12.6091 124.959 12.1756C125.314 11.5048 125.815 10.9818 126.455 10.6068Z" fill="#111111"/>
<path d="M147.189 7.21463C146.474 7.61716 145.889 8.14353 145.425 8.78688V6.52656H140.733V23.7422H145.645V15.616C145.645 13.975 146.055 12.7571 146.874 11.9692C147.693 11.1814 148.793 10.7857 150.181 10.7857C150.35 10.7857 150.523 10.7961 150.699 10.8167C150.878 10.8373 151.061 10.8717 151.251 10.913V6.27197C149.656 6.27197 148.302 6.58849 147.189 7.21463Z" fill="#111111"/>
<path d="M160.004 24.0002C158.556 24.0002 157.171 23.8247 155.848 23.4704C154.524 23.1194 153.464 22.6756 152.669 22.1424L154.273 18.5919C155.072 19.0598 156 19.452 157.059 19.7617C158.119 20.0713 159.165 20.2261 160.191 20.2261C161.325 20.2261 162.127 20.0885 162.601 19.8098C163.071 19.5311 163.308 19.1493 163.308 18.6573C163.308 18.2513 163.125 17.9486 162.756 17.7456C162.387 17.5426 161.907 17.3878 161.308 17.2811C160.708 17.1745 160.042 17.0678 159.307 16.9612C158.572 16.8545 157.841 16.7066 157.12 16.5139C156.396 16.3213 155.726 16.0495 155.106 15.6986C154.487 15.3477 153.992 14.8626 153.627 14.2433C153.258 13.624 153.075 12.8259 153.075 11.8419C153.075 10.7548 153.39 9.78803 154.02 8.94514C154.649 8.10225 155.539 7.44514 156.697 6.97725C157.851 6.50936 159.246 6.27197 160.884 6.27197C162.059 6.27197 163.24 6.40615 164.425 6.67106C165.61 6.9394 166.612 7.30752 167.431 7.77541L165.762 11.3259C164.963 10.858 164.151 10.5243 163.322 10.335C162.492 10.1424 161.7 10.0461 160.945 10.0461C159.811 10.0461 158.992 10.194 158.488 10.4933C157.983 10.7926 157.733 11.1745 157.733 11.6458C157.733 12.0724 157.923 12.3993 158.298 12.6229C158.677 12.8465 159.168 13.0117 159.778 13.1183C160.387 13.225 161.057 13.3316 161.792 13.4383C162.526 13.5449 163.251 13.6928 163.965 13.8855C164.679 14.0782 165.346 14.35 165.965 14.7009C166.585 15.0518 167.079 15.5369 167.445 16.1561C167.81 16.7754 167.996 17.5736 167.996 18.5575C167.996 19.6034 167.682 20.5357 167.052 21.358C166.422 22.1802 165.515 22.8236 164.327 23.2949C163.142 23.7628 161.697 24.0002 159.998 24.0002H160.004Z" fill="#111111"/>
<path d="M11.2923 15.7192L11.3127 12.0552L11.3093 11.3844H7.02718L1.03564 5.2949L4.00772 2.27082L8.54368 6.83619V0.347656H12.7479L12.7818 6.76738L17.2466 2.22954L20.2187 5.25018L15.7301 9.86027H22.1143V14.1332L15.7606 14.1676L20.2187 18.7502L17.2466 21.7708L11.2923 15.7192Z" fill="#DDFF21"/>
<path d="M8.54386 23.6528V17.1643L4.0079 21.7296L1.03583 18.7055L5.50071 14.1677L0 14.1402L0.00338505 13.3592V9.86035H12.7989L12.809 12.0553L12.7481 23.6528H8.54386Z" fill="#111111"/>
</g>
<defs>
<clipPath id="clip0_849_157">
<rect width="168" height="24" fill="white"/>
</clipPath>
</defs>
</svg>
