<svg width="168" height="24" viewBox="0 0 168 24" fill="none" xmlns="http://www.w3.org/2000/svg">
<g clip-path="url(#clip0_849_254)">
<path d="M43.8533 23.7454H49.8042L42.1202 13.8165L49.1746 6.52982H43.3185L36.1422 13.4174V0H31.2305V23.7454H36.1422V19.383L38.5252 17.0195L43.8533 23.7454Z" fill="white"/>
<path d="M68.2868 9.5848C67.6775 8.46324 66.8447 7.63411 65.7852 7.0871C64.7257 6.54352 63.524 6.27173 62.1801 6.27173C60.7313 6.27173 59.4416 6.58136 58.3076 7.20063C57.6374 7.56531 57.0619 8.02632 56.5745 8.58022V6.52976H51.8828V23.7454H56.7945V15.2339C56.7945 14.1467 56.9672 13.2729 57.3158 12.6089C57.6611 11.9483 58.1452 11.446 58.7646 11.1054C59.3841 10.7648 60.0814 10.5928 60.86 10.5928C61.9499 10.5928 62.7962 10.9231 63.3954 11.5837C63.9945 12.2442 64.2924 13.2694 64.2924 14.6559V23.7454H69.2041V13.8887C69.2041 12.141 68.8995 10.7064 68.2901 9.5848H68.2868Z" fill="white"/>
<path d="M81.7928 23.9999C80.0089 23.9999 78.4179 23.6146 77.0233 22.8474C75.6286 22.0802 74.5319 21.0275 73.733 19.696C72.9341 18.3646 72.5381 16.844 72.5381 15.1376C72.5381 13.4311 72.9375 11.8795 73.733 10.5447C74.5319 9.21324 75.6286 8.16737 77.0233 7.40705C78.4179 6.65017 80.0089 6.27173 81.7928 6.27173C83.5767 6.27173 85.2049 6.65017 86.6097 7.40705C88.0145 8.16393 89.1181 9.2098 89.9169 10.5447C90.7158 11.8795 91.1119 13.4071 91.1119 15.1376C91.1119 16.8681 90.7124 18.3921 89.9169 19.7132C89.1181 21.0378 88.0179 22.0802 86.6097 22.8509C85.2016 23.6181 83.597 24.0034 81.7928 24.0034V23.9999ZM81.7928 19.9025C82.6323 19.9025 83.3736 19.7167 84.0134 19.3417C84.6532 18.9701 85.1677 18.4197 85.557 17.6937C85.9463 16.9678 86.1392 16.1146 86.1392 15.1341C86.1392 14.1536 85.9463 13.2798 85.557 12.5745C85.1677 11.8692 84.6532 11.3325 84.0134 10.9575C83.3736 10.5859 82.6425 10.3967 81.8267 10.3967C81.0109 10.3967 80.2729 10.5825 79.623 10.9575C78.9731 11.3325 78.4518 11.8692 78.0659 12.5745C77.6766 13.2798 77.4836 14.133 77.4836 15.1341C77.4836 16.1353 77.6766 16.9678 78.0659 17.6937C78.4552 18.4197 78.9731 18.9701 79.623 19.3417C80.2729 19.7167 80.9973 19.9025 81.7962 19.9025H81.7928Z" fill="white"/>
<path d="M103.992 19.3935C103.447 19.8201 102.773 20.0334 101.978 20.0334C101.348 20.0334 100.851 19.8304 100.482 19.4244C100.113 19.0185 99.9299 18.4542 99.9299 17.7283V10.7513H104.117V6.9118H99.9299V2.72144H94.9878V6.9118H92.3745V10.7513H94.9878V17.8246C94.9878 19.8717 95.5429 21.4129 96.6566 22.4485C97.7703 23.484 99.3206 24.0001 101.318 24.0001C102.073 24.0001 102.804 23.9072 103.505 23.7283C104.209 23.546 104.801 23.2742 105.285 22.9129L103.995 19.3935H103.992Z" fill="white"/>
<path d="M117.309 19.3935C116.764 19.8201 116.09 20.0334 115.295 20.0334C114.665 20.0334 114.168 19.8304 113.799 19.4244C113.43 19.0185 113.247 18.4542 113.247 17.7283V10.7513H117.434V6.9118H113.247V2.72144H108.305V6.9118H105.691V10.7513H108.305V17.8246C108.305 19.8717 108.86 21.4129 109.973 22.4485C111.087 23.484 112.638 24.0001 114.635 24.0001C115.39 24.0001 116.121 23.9072 116.821 23.7283C117.526 23.546 118.118 23.2742 118.602 22.9129L117.312 19.3935H117.309Z" fill="white"/>
<path d="M136.296 10.4311C135.52 9.11003 134.464 8.0848 133.131 7.35888C131.797 6.63297 130.301 6.27173 128.645 6.27173C126.99 6.27173 125.375 6.65017 124.001 7.40705C122.627 8.16393 121.557 9.21668 120.789 10.5584C120.024 11.9036 119.638 13.4277 119.638 15.1341C119.638 16.8405 120.037 18.3612 120.833 19.6926C121.631 21.0275 122.752 22.0768 124.201 22.844C125.65 23.6112 127.339 23.9965 129.272 23.9965C130.805 23.9965 132.159 23.7557 133.334 23.2775C134.508 22.7993 135.487 22.1112 136.262 21.2132L133.648 18.3337C133.083 18.8876 132.457 19.3038 131.776 19.5825C131.093 19.8612 130.311 19.9988 129.431 19.9988C128.402 19.9988 127.521 19.813 126.787 19.438C126.052 19.0665 125.474 18.5263 125.054 17.821C124.824 17.4357 124.661 17.0057 124.56 16.5412H137.365C137.386 16.3279 137.406 16.0974 137.43 15.8532C137.45 15.6089 137.46 15.3887 137.46 15.196C137.46 13.3417 137.071 11.7522 136.296 10.4277V10.4311ZM126.455 10.6066C127.095 10.235 127.836 10.0458 128.676 10.0458C129.515 10.0458 130.25 10.2316 130.879 10.6066C131.509 10.9816 132.003 11.4976 132.359 12.1582C132.596 12.5951 132.741 13.0905 132.812 13.6307H124.502C124.583 13.0974 124.732 12.6089 124.962 12.1754C125.318 11.5045 125.819 10.9816 126.459 10.6066H126.455Z" fill="white"/>
<path d="M147.189 7.21439C146.474 7.61691 145.889 8.14329 145.425 8.78664V6.52632H140.733V23.7419H145.645V15.6158C145.645 13.9747 146.055 12.7568 146.874 11.969C147.693 11.1811 148.793 10.7855 150.181 10.7855C150.35 10.7855 150.523 10.7958 150.699 10.8165C150.878 10.8371 151.061 10.8715 151.251 10.9128V6.27173C149.656 6.27173 148.302 6.58824 147.189 7.21439Z" fill="white"/>
<path d="M160.004 23.9999C158.556 23.9999 157.171 23.8245 155.848 23.4701C154.524 23.1192 153.464 22.6754 152.669 22.1421L154.273 18.5917C155.072 19.0596 156 19.4518 157.059 19.7614C158.119 20.071 159.165 20.2259 160.191 20.2259C161.325 20.2259 162.127 20.0882 162.601 19.8096C163.075 19.5309 163.308 19.149 163.308 18.657C163.308 18.2511 163.125 17.9483 162.756 17.7454C162.387 17.5424 161.907 17.3876 161.308 17.2809C160.708 17.1743 160.042 17.0676 159.307 16.9609C158.572 16.8543 157.841 16.7064 157.12 16.5137C156.396 16.321 155.726 16.0493 155.106 15.6983C154.487 15.3474 153.992 14.8623 153.627 14.2431C153.258 13.6238 153.075 12.8256 153.075 11.8417C153.075 10.7545 153.39 9.78778 154.02 8.94489C154.649 8.102 155.539 7.44489 156.697 6.977C157.851 6.50911 159.246 6.27173 160.884 6.27173C162.059 6.27173 163.24 6.4059 164.425 6.67081C165.61 6.93916 166.612 7.30728 167.431 7.77517L165.762 11.3256C164.963 10.8577 164.151 10.524 163.322 10.3348C162.492 10.1421 161.7 10.0458 160.945 10.0458C159.811 10.0458 158.992 10.1937 158.488 10.4931C157.983 10.7924 157.733 11.1743 157.733 11.6456C157.733 12.0722 157.923 12.399 158.298 12.6226C158.677 12.8463 159.168 13.0114 159.778 13.1181C160.387 13.2247 161.057 13.3314 161.792 13.438C162.526 13.5447 163.251 13.6926 163.965 13.8853C164.679 14.0779 165.346 14.3497 165.965 14.7006C166.585 15.0515 167.079 15.5366 167.445 16.1559C167.81 16.7752 167.996 17.5733 167.996 18.5573C167.996 19.6031 167.682 20.5355 167.052 21.3577C166.422 22.18 165.515 22.8233 164.327 23.2947C163.142 23.7626 161.697 23.9999 159.998 23.9999H160.004Z" fill="white"/>
<path d="M11.2923 15.719L11.3127 12.055L11.3093 11.3841H7.02718L1.03564 5.29466L4.00772 2.27058L8.54368 6.83594V0.347412H12.7479L12.7818 6.76714L17.2466 2.22929L20.2187 5.24993L15.7301 9.86347H22.1143V14.133L15.7606 14.1674L20.2187 18.7499L17.2466 21.7706L11.2923 15.719Z" fill="#DDFF21"/>
<path d="M8.54386 23.6525V17.164L4.0079 21.7293L1.03583 18.7053L5.50071 14.1674L0 14.1399L0.00338505 13.3589V9.86353H12.7989L12.809 12.055L12.7481 23.6525H8.54386Z" fill="white"/>
</g>
<defs>
<clipPath id="clip0_849_254">
<rect width="168" height="24" fill="white"/>
</clipPath>
</defs>
</svg>
